<?xml version="1.0" encoding="utf-8"?>
<!-- Generator: Adobe Illustrator 16.0.4, SVG Export Plug-In . SVG Version: 6.00 Build 0)  -->
<!DOCTYPE svg PUBLIC "-//W3C//DTD SVG 1.1//EN" "http://www.w3.org/Graphics/SVG/1.1/DTD/svg11.dtd">
<svg version="1.1" id="Layer_1" xmlns="http://www.w3.org/2000/svg" xmlns:xlink="http://www.w3.org/1999/xlink" x="0px" y="0px"
	 width="440px" height="432px" viewBox="77.64 204.945 440 432" enable-background="new 77.64 204.945 440 432"
	 xml:space="preserve">
<g>
	<polygon fill="#BF2D78" points="437.691,523.48 137.82,522.867 133.768,511.446 245.513,402.034 513.578,449.925 517.63,461.468 	
		"/>
	<polygon fill="#8D76B2" points="433.515,511.938 133.768,511.446 129.593,499.903 245.513,402.034 509.527,438.383 
		513.578,449.925 	"/>
	<polygon fill="#8D76B2" points="433.024,512.307 272.406,636.945 96.683,636.945 338.838,445.259 468.512,421.682 	"/>
	<polygon fill="#E2E6E8" points="429.462,500.395 129.593,499.903 125.54,488.36 245.513,402.034 505.352,426.84 509.527,438.383 	
		"/>
	<polygon fill="#E2E6E8" points="429.462,500.395 268.231,625.402 97.911,625.402 424.428,377.106 464.951,409.771 	"/>
	<polygon fill="#FFFFFF" points="328.032,442.558 348.784,441.329 96.683,636.945 77.65,636.945 	"/>
	<polygon fill="#E2E6E8" points="168.642,322.585 322.629,204.945 391.887,204.945 391.887,254.433 380.344,269.782 173.8,427.822 
		171.957,403.508 	"/>
	<polygon fill="#8D76B2" points="240.479,370.23 391.887,254.433 391.887,269.659 240.479,385.457 	"/>
	<polygon fill="#8D76B2" points="425.287,488.852 125.54,488.36 121.365,476.818 245.513,402.034 501.299,415.297 505.352,426.84 	
		"/>
	<polygon fill="#E2E6E8" points="421.235,477.309 121.365,476.818 117.313,465.275 245.513,402.034 497.123,403.754 
		501.299,415.297 	"/>
	<polygon fill="#BF2D78" points="417.183,465.766 117.313,465.275 113.261,453.732 245.513,402.034 493.072,392.211 
		497.123,403.754 	"/>
	<polygon fill="#FB1E70" points="413.008,454.223 113.261,453.732 88.578,384.598 168.642,322.585 468.512,323.076 493.072,392.211 
			"/>
	<polygon fill="#8D76B2" points="410.674,500.395 346.206,550.373 394.342,500.395 	"/>
	<polygon fill="#8D76B2" points="203.762,311.164 244.654,279.237 220.094,311.164 	"/>
</g>
</svg>
