<?xml version="1.0" encoding="utf-8"?>
<!-- Generator: Adobe Illustrator 16.0.4, SVG Export Plug-In . SVG Version: 6.00 Build 0)  -->
<!DOCTYPE svg PUBLIC "-//W3C//DTD SVG 1.1//EN" "http://www.w3.org/Graphics/SVG/1.1/DTD/svg11.dtd">
<svg version="1.1" id="Layer_1" xmlns="http://www.w3.org/2000/svg" xmlns:xlink="http://www.w3.org/1999/xlink" x="0px" y="0px"
	 width="60px" height="60px" viewBox="0 0 60 60" enable-background="new 0 0 60 60" xml:space="preserve">
<path fill-rule="evenodd" clip-rule="evenodd" fill="#3D464D" d="M29.998,0.739C13.431,0.739,0,14.17,0,30.741
	c0,13.256,8.593,24.501,20.518,28.468c1.5,0.273,2.047-0.65,2.047-1.445c0-0.713-0.025-2.602-0.04-5.104
	c-8.345,1.812-10.108-4.021-10.108-4.021c-1.363-3.465-3.331-4.39-3.331-4.39c-2.723-1.858,0.207-1.822,0.207-1.822
	c3.011,0.211,4.596,3.093,4.596,3.093c2.675,4.583,7.021,3.259,8.729,2.493c0.274-1.939,1.049-3.263,1.907-4.011
	c-6.662-0.76-13.666-3.331-13.666-14.828c0-3.277,1.169-5.954,3.086-8.05c-0.308-0.759-1.338-3.81,0.295-7.941
	c0,0,2.518-0.808,8.25,3.076c2.395-0.666,4.959-0.998,7.512-1.009c2.549,0.011,5.113,0.343,7.51,1.009
	c5.73-3.883,8.244-3.076,8.244-3.076c1.637,4.131,0.606,7.182,0.299,7.941c1.921,2.097,3.082,4.773,3.082,8.05
	c0,11.525-7.014,14.062-13.697,14.803c1.076,0.928,2.035,2.759,2.035,5.558c0,4.011-0.035,7.244-0.035,8.23
	c0,0.802,0.539,1.733,2.062,1.442C51.414,55.23,60,43.993,60,30.741C60,14.17,46.568,0.739,29.998,0.739z"/>
</svg>
