<?xml version="1.0" encoding="utf-8"?>
<!-- Generator: Adobe Illustrator 16.0.4, SVG Export Plug-In . SVG Version: 6.00 Build 0)  -->
<!DOCTYPE svg PUBLIC "-//W3C//DTD SVG 1.1//EN" "http://www.w3.org/Graphics/SVG/1.1/DTD/svg11.dtd">
<svg version="1.1" id="Layer_1" xmlns="http://www.w3.org/2000/svg" xmlns:xlink="http://www.w3.org/1999/xlink" x="0px" y="0px"
	 width="60px" height="60px" viewBox="0 0 60 60" enable-background="new 0 0 60 60" xml:space="preserve">
<path fill-rule="evenodd" clip-rule="evenodd" fill="#FBFBF7" d="M0,0v60h60V0H0z M39.379,58.829
	c-1.504,0.287-2.035-0.633-2.035-1.424c0-0.974,0.034-4.166,0.034-8.124c0-2.763-0.946-4.57-2.009-5.486
	c6.598-0.731,13.521-3.235,13.521-14.611c0-3.235-1.146-5.877-3.042-7.946c0.303-0.75,1.32-3.761-0.296-7.838
	c0,0-2.48-0.797-8.137,3.036c-2.366-0.658-4.897-0.985-7.413-0.996c-2.52,0.011-5.051,0.338-7.415,0.996
	c-5.658-3.833-8.143-3.036-8.143-3.036c-1.612,4.078-0.595,7.089-0.292,7.838c-1.892,2.069-3.046,4.711-3.046,7.946
	c0,11.349,6.913,13.887,13.489,14.637c-0.847,0.738-1.611,2.044-1.882,3.959c-1.687,0.756-5.976,2.062-8.617-2.461
	c0,0-1.564-2.845-4.537-3.053c0,0-2.892-0.036-0.204,1.798c0,0,1.942,0.913,3.288,4.333c0,0,1.74,5.759,9.978,3.97
	c0.015,2.471,0.04,4.335,0.04,5.039c0,0.784-0.54,1.696-2.021,1.426C8.87,54.916,0.388,43.816,0.388,30.731
	c0-16.356,13.258-29.614,29.61-29.614c16.356,0,29.614,13.258,29.614,29.614C59.612,43.812,51.138,54.904,39.379,58.829z"/>
</svg>
