<?xml version="1.0" encoding="utf-8"?>
<!-- Generator: Adobe Illustrator 16.0.4, SVG Export Plug-In . SVG Version: 6.00 Build 0)  -->
<!DOCTYPE svg PUBLIC "-//W3C//DTD SVG 1.1//EN" "http://www.w3.org/Graphics/SVG/1.1/DTD/svg11.dtd">
<svg version="1.1" id="Layer_1" xmlns="http://www.w3.org/2000/svg" xmlns:xlink="http://www.w3.org/1999/xlink" x="0px" y="0px"
	 width="60px" height="60px" viewBox="0 0 60 60" enable-background="new 0 0 60 60" xml:space="preserve">
<path fill="#FFFFFF" d="M39.4,58.82c-1.5,0.3-2-0.6-2-1.399c0-1,0-4.2,0-8.101c0-2.8-0.9-4.6-2-5.5c6.6-0.7,13.5-3.2,13.5-14.6
	c0-3.2-1.101-5.9-3-7.9c0.3-0.699,1.3-3.8-0.301-7.8c0,0-2.5-0.8-8.1,3c-2.4-0.7-4.9-1-7.399-1c-2.5,0-5.101,0.3-7.4,1
	c-5.7-3.8-8.1-3-8.1-3C13,17.621,14,20.621,14.3,21.32c-1.899,2.101-3,4.7-3,7.9c0,11.3,6.9,13.899,13.5,14.6
	c-0.8,0.7-1.6,2-1.899,4c-1.7,0.8-6,2.101-8.601-2.5c0,0-1.6-2.8-4.5-3.1c0,0-2.899,0-0.199,1.8c0,0,1.899,0.9,3.3,4.3
	c0,0,1.7,5.8,10,4c0,2.5,0,4.3,0,5c0,0.8-0.5,1.7-2,1.4c-12-3.8-20.5-14.9-20.5-28c0-16.4,13.3-29.6,29.6-29.6
	c16.4,0,29.6,13.3,29.6,29.6C59.6,43.82,51.1,54.921,39.4,58.82z"/>
</svg>
