<?xml version="1.0" standalone="no"?>
<!DOCTYPE svg PUBLIC "-//W3C//DTD SVG 20010904//EN"
 "http://www.w3.org/TR/2001/REC-SVG-20010904/DTD/svg10.dtd">
<svg version="1.0" xmlns="http://www.w3.org/2000/svg"
 width="700.000000pt" height="700.000000pt" viewBox="0 0 700.000000 700.000000"
 preserveAspectRatio="xMidYMid meet">
<metadata>
Created by potrace 1.11, written by Peter Selinger 2001-2013
</metadata>
<g transform="translate(0.000000,700.000000) scale(0.100000,-0.100000)"
fill="#000000" stroke="none">
<path d="M4030 6439 c-41 -16 -172 -66 -290 -110 -118 -45 -228 -87 -245 -94
-16 -7 -147 -57 -290 -110 -143 -54 -273 -103 -290 -110 -16 -7 -46 -18 -65
-25 -19 -7 -44 -16 -55 -21 -11 -4 -63 -24 -115 -44 -52 -20 -129 -49 -170
-64 -41 -16 -149 -57 -240 -91 -91 -34 -178 -68 -195 -75 -16 -7 -50 -20 -75
-28 -25 -8 -75 -27 -112 -42 -71 -29 -75 -32 -178 -210 -9 -16 -144 -239 -300
-495 -156 -256 -290 -477 -299 -492 -54 -92 -509 -840 -531 -873 -22 -33 -25
-45 -18 -70 4 -16 10 -41 13 -55 9 -44 12 -59 120 -500 59 -239 109 -446 111
-460 3 -14 12 -52 21 -85 8 -33 16 -67 18 -75 2 -8 26 -109 55 -225 28 -115
53 -217 55 -225 2 -8 13 -55 25 -105 12 -49 24 -99 26 -110 2 -11 16 -69 32
-129 l27 -109 190 -83 c105 -47 214 -95 243 -109 29 -14 55 -25 57 -25 3 0 39
-16 81 -35 41 -19 77 -35 79 -35 2 0 35 -14 72 -31 105 -48 139 -63 268 -119
66 -29 138 -60 160 -70 22 -10 123 -55 225 -100 102 -45 199 -88 215 -95 166
-76 398 -175 408 -175 12 0 100 31 142 50 11 4 65 25 120 45 55 20 109 41 120
45 28 12 228 89 365 140 41 16 109 42 150 58 41 16 120 46 175 67 181 68 280
106 300 115 11 5 92 36 180 69 88 33 309 117 490 186 182 70 344 131 360 137
17 5 44 16 60 23 17 7 104 41 195 75 91 34 169 66 175 71 6 6 5 21 -2 42 -6
17 -46 140 -88 272 -42 132 -105 324 -139 426 l-61 186 -370 -144 c-203 -79
-374 -146 -380 -148 -22 -9 -364 -140 -420 -160 -71 -26 -321 -123 -350 -135
-11 -5 -63 -25 -115 -45 -52 -20 -104 -40 -115 -45 -27 -11 -545 -210 -549
-210 -3 0 -213 244 -301 349 -11 13 -38 45 -60 71 -22 25 -59 68 -82 95 -23
28 -53 63 -66 79 -14 16 -24 34 -22 40 8 22 256 709 401 1106 77 213 233 646
261 725 19 55 41 114 48 130 7 17 41 109 75 205 34 96 65 184 70 195 5 11 64
174 132 363 95 265 126 342 138 338 8 -2 67 -23 130 -46 63 -23 185 -67 270
-97 85 -30 159 -58 163 -63 7 -6 40 -120 52 -180 9 -42 17 -77 25 -100 4 -14
13 -50 20 -80 6 -30 16 -68 21 -85 7 -25 134 -540 144 -585 4 -18 72 -289 86
-342 9 -33 12 -36 32 -28 12 5 150 50 307 100 303 98 790 255 1005 325 72 23
165 53 207 66 53 16 78 29 78 40 0 12 -36 175 -76 344 -3 11 -7 31 -10 45 -3
14 -14 61 -25 105 -11 44 -22 94 -25 110 -2 17 -7 38 -10 47 -5 17 -12 46 -20
88 -3 14 -9 41 -14 60 -5 19 -11 46 -14 60 -3 14 -7 34 -10 45 -7 30 -75 323
-87 375 -9 41 -14 47 -57 64 -26 11 -69 29 -97 42 -27 12 -124 54 -215 94 -91
40 -193 85 -228 101 -35 16 -65 29 -67 29 -3 0 -28 11 -57 24 -29 13 -89 40
-133 59 -44 19 -159 70 -255 112 -96 42 -202 88 -235 102 -33 14 -87 39 -121
54 -33 15 -71 32 -85 37 -13 6 -122 53 -242 106 -119 53 -225 96 -235 95 -9 0
-51 -13 -92 -30z"/>
</g>
</svg>
